<svg width="191" height="60" viewBox="0 0 191 60" fill="none" xmlns="http://www.w3.org/2000/svg">
<rect width="191" height="60" rx="10" fill="#9747FF"/>
<rect x="22" y="29" width="16" height="2" rx="1" fill="white"/>
<rect x="31" y="22" width="16" height="2" rx="1" transform="rotate(90 31 22)" fill="white"/>
<path d="M50.5014 38.8068V34.2784H51.2798C51.5412 34.0701 51.7855 33.7765 52.0128 33.3977C52.2401 33.0189 52.4332 32.5 52.5923 31.8409C52.7514 31.1818 52.8613 30.3295 52.9219 29.2841L53.2287 24.3636H60.6662V34.2784H61.9616V38.7955H59.9389V36H52.5241V38.8068H50.5014ZM53.7344 34.2784H58.6435V26.1307H55.1264L54.9446 29.2841C54.8954 30.0758 54.8158 30.7841 54.706 31.4091C54.5961 32.0341 54.4579 32.5852 54.2912 33.0625C54.1245 33.536 53.9389 33.9413 53.7344 34.2784ZM67.3949 36.1705C66.5426 36.1705 65.804 35.983 65.179 35.608C64.554 35.233 64.0691 34.7083 63.7244 34.0341C63.3835 33.3598 63.2131 32.572 63.2131 31.6705C63.2131 30.7689 63.3835 29.9792 63.7244 29.3011C64.0691 28.6231 64.554 28.0966 65.179 27.7216C65.804 27.3466 66.5426 27.1591 67.3949 27.1591C68.2472 27.1591 68.9858 27.3466 69.6108 27.7216C70.2358 28.0966 70.7188 28.6231 71.0597 29.3011C71.4044 29.9792 71.5767 30.7689 71.5767 31.6705C71.5767 32.572 71.4044 33.3598 71.0597 34.0341C70.7188 34.7083 70.2358 35.233 69.6108 35.608C68.9858 35.983 68.2472 36.1705 67.3949 36.1705ZM67.4062 34.5227C67.8684 34.5227 68.2547 34.3958 68.5653 34.142C68.8759 33.8845 69.107 33.5398 69.2585 33.108C69.4138 32.6761 69.4915 32.1951 69.4915 31.6648C69.4915 31.1307 69.4138 30.6477 69.2585 30.2159C69.107 29.7803 68.8759 29.4337 68.5653 29.1761C68.2547 28.9186 67.8684 28.7898 67.4062 28.7898C66.9328 28.7898 66.5388 28.9186 66.2244 29.1761C65.9138 29.4337 65.6809 29.7803 65.5256 30.2159C65.3741 30.6477 65.2983 31.1307 65.2983 31.6648C65.2983 32.1951 65.3741 32.6761 65.5256 33.108C65.6809 33.5398 65.9138 33.8845 66.2244 34.142C66.5388 34.3958 66.9328 34.5227 67.4062 34.5227ZM80.3168 24.0455L81.0327 25.375C80.7789 25.5947 80.4948 25.7538 80.1804 25.8523C79.866 25.9508 79.4967 26.0152 79.0724 26.0455C78.652 26.072 78.152 26.0909 77.5724 26.1023C76.9209 26.1174 76.3887 26.2405 75.9759 26.4716C75.563 26.7027 75.2467 27.053 75.027 27.5227C74.8073 27.9886 74.6634 28.5833 74.5952 29.3068H74.6918C74.9645 28.7727 75.3471 28.3655 75.8395 28.0852C76.3319 27.8049 76.9096 27.6648 77.5724 27.6648C78.2959 27.6648 78.9342 27.8277 79.4872 28.1534C80.044 28.4754 80.4777 28.9432 80.7884 29.5568C81.1027 30.1705 81.2599 30.9129 81.2599 31.7841C81.2599 32.6818 81.0914 33.4602 80.7543 34.1193C80.4171 34.7746 79.938 35.2803 79.3168 35.6364C78.6993 35.9924 77.9664 36.1705 77.1179 36.1705C76.2732 36.1705 75.5384 35.9867 74.9134 35.6193C74.2921 35.2481 73.8111 34.7008 73.4702 33.9773C73.133 33.25 72.9645 32.3542 72.9645 31.2898V30.5057C72.9645 28.4527 73.3471 26.9205 74.1122 25.9091C74.8774 24.8977 76.0118 24.3826 77.5156 24.3636C77.9626 24.3561 78.3622 24.3542 78.7145 24.358C79.0705 24.3617 79.3812 24.3447 79.6463 24.3068C79.9115 24.2689 80.1349 24.1818 80.3168 24.0455ZM77.1293 34.5227C77.5497 34.5227 77.9134 34.4148 78.2202 34.1989C78.527 33.9792 78.7618 33.6686 78.9247 33.267C79.0914 32.8655 79.1747 32.3902 79.1747 31.8409C79.1747 31.2992 79.0914 30.839 78.9247 30.4602C78.758 30.0777 78.5213 29.786 78.2145 29.5852C77.9077 29.3845 77.5421 29.2841 77.1179 29.2841C76.7997 29.2841 76.5137 29.3409 76.2599 29.4545C76.0062 29.5682 75.7902 29.7348 75.6122 29.9545C75.4342 30.1742 75.2978 30.4413 75.2031 30.7557C75.1084 31.0701 75.0573 31.4318 75.0497 31.8409C75.0497 32.6629 75.2353 33.3163 75.6065 33.8011C75.9777 34.2822 76.4853 34.5227 77.1293 34.5227ZM85.5213 36.1761C84.9683 36.1761 84.4702 36.0777 84.027 35.8807C83.5876 35.6799 83.2391 35.3845 82.9815 34.9943C82.7277 34.6042 82.6009 34.1231 82.6009 33.5511C82.6009 33.0587 82.6918 32.6515 82.8736 32.3295C83.0554 32.0076 83.3035 31.75 83.6179 31.5568C83.9323 31.3636 84.2865 31.2178 84.6804 31.1193C85.0781 31.017 85.4891 30.9432 85.9134 30.8977C86.4247 30.8447 86.8395 30.7973 87.1577 30.7557C87.4759 30.7102 87.7069 30.642 87.8509 30.5511C87.9986 30.4564 88.0724 30.3106 88.0724 30.1136V30.0795C88.0724 29.6515 87.9455 29.3201 87.6918 29.0852C87.438 28.8504 87.0724 28.733 86.5952 28.733C86.0914 28.733 85.6918 28.8428 85.3963 29.0625C85.1046 29.2822 84.9077 29.5417 84.8054 29.8409L82.8849 29.5682C83.0365 29.0379 83.2865 28.5947 83.6349 28.2386C83.9834 27.8788 84.4096 27.6098 84.9134 27.4318C85.4171 27.25 85.974 27.1591 86.5838 27.1591C87.0043 27.1591 87.4228 27.2083 87.8395 27.3068C88.2562 27.4053 88.6368 27.5682 88.9815 27.7955C89.3262 28.0189 89.6027 28.3239 89.8111 28.7102C90.0232 29.0966 90.1293 29.5795 90.1293 30.1591V36H88.152V34.8011H88.0838C87.9588 35.0436 87.7827 35.2708 87.5554 35.483C87.3319 35.6913 87.0497 35.8598 86.7088 35.9886C86.3717 36.1136 85.9759 36.1761 85.5213 36.1761ZM86.0554 34.6648C86.4683 34.6648 86.8262 34.5833 87.1293 34.4205C87.4323 34.2538 87.6652 34.0341 87.8281 33.7614C87.9948 33.4886 88.0781 33.1913 88.0781 32.8693V31.8409C88.0137 31.8939 87.9039 31.9432 87.7486 31.9886C87.5971 32.0341 87.4266 32.0739 87.2372 32.108C87.0478 32.142 86.8603 32.1723 86.6747 32.1989C86.4891 32.2254 86.3281 32.2481 86.1918 32.267C85.8849 32.3087 85.6103 32.3769 85.3679 32.4716C85.1255 32.5663 84.9342 32.6989 84.794 32.8693C84.6539 33.036 84.5838 33.2519 84.5838 33.517C84.5838 33.8958 84.7221 34.1818 84.9986 34.375C85.2751 34.5682 85.6274 34.6648 86.0554 34.6648ZM92.1974 36V27.2727H95.8622C96.8963 27.2727 97.7126 27.4792 98.3111 27.892C98.9134 28.3049 99.2145 28.8807 99.2145 29.6193C99.2145 30.108 99.044 30.5076 98.7031 30.8182C98.366 31.125 97.9058 31.3314 97.3224 31.4375C97.7808 31.4754 98.1823 31.5909 98.527 31.7841C98.8755 31.9773 99.1482 32.2311 99.3452 32.5455C99.5421 32.8598 99.6406 33.2216 99.6406 33.6307C99.6406 34.1117 99.5137 34.5303 99.2599 34.8864C99.0099 35.2386 98.6444 35.5133 98.1634 35.7102C97.6861 35.9034 97.1065 36 96.4247 36H92.1974ZM94.1236 34.3807H96.4247C96.8035 34.3807 97.1009 34.2917 97.3168 34.1136C97.5327 33.9318 97.6406 33.6856 97.6406 33.375C97.6406 33.0152 97.5327 32.733 97.3168 32.5284C97.1009 32.3201 96.8035 32.2159 96.4247 32.2159H94.1236V34.3807ZM94.1236 30.8864H95.902C96.1823 30.8864 96.4228 30.8466 96.6236 30.767C96.8243 30.6837 96.9777 30.5682 97.0838 30.4205C97.1899 30.2689 97.2429 30.089 97.2429 29.8807C97.2429 29.5814 97.1198 29.3466 96.8736 29.1761C96.6312 29.0057 96.294 28.9205 95.8622 28.9205H94.1236V30.8864ZM103.321 33.2159L106.815 27.2727H108.929V36H106.94V30.0511L103.457 36H101.338V27.2727H103.321V33.2159ZM110.064 28.9602V27.2727H117.7V28.9602H114.876V36H112.888V28.9602H110.064ZM120.73 30.1136H123.304C124.418 30.1136 125.279 30.3845 125.889 30.9261C126.499 31.4678 126.806 32.178 126.81 33.0568C126.806 33.6288 126.666 34.1364 126.389 34.5795C126.116 35.0227 125.719 35.3712 125.196 35.625C124.677 35.875 124.046 36 123.304 36H119.338V27.2727H121.321V34.3125H123.304C123.751 34.3125 124.118 34.1989 124.406 33.9716C124.694 33.7405 124.838 33.4451 124.838 33.0852C124.838 32.7064 124.694 32.3977 124.406 32.1591C124.118 31.9205 123.751 31.8011 123.304 31.8011H120.73V30.1136ZM136.501 38.9659V24.3636H138.564V38.9659H136.501ZM136.501 36.1705C135.861 36.1705 135.276 36.0625 134.746 35.8466C134.215 35.6307 133.757 35.3239 133.371 34.9261C132.988 34.5284 132.691 34.0549 132.479 33.5057C132.27 32.9527 132.166 32.3409 132.166 31.6705C132.166 31 132.27 30.3883 132.479 29.8352C132.691 29.2822 132.988 28.8068 133.371 28.4091C133.757 28.0076 134.215 27.6989 134.746 27.483C135.276 27.267 135.861 27.1591 136.501 27.1591H136.939V36.1705H136.501ZM136.501 34.5114H136.757V28.8182H136.501C136.138 28.8182 135.816 28.8939 135.536 29.0455C135.259 29.1932 135.026 29.3996 134.837 29.6648C134.651 29.9261 134.509 30.2292 134.411 30.5739C134.316 30.9148 134.268 31.2803 134.268 31.6705C134.268 32.1894 134.354 32.6648 134.524 33.0966C134.695 33.5246 134.945 33.8674 135.274 34.125C135.607 34.3826 136.017 34.5114 136.501 34.5114ZM138.564 36.1705H138.126V27.1591H138.564C139.204 27.1591 139.789 27.267 140.32 27.483C140.85 27.6989 141.306 28.0076 141.689 28.4091C142.075 28.8068 142.373 29.2822 142.581 29.8352C142.793 30.3883 142.899 31 142.899 31.6705C142.899 32.3409 142.793 32.9527 142.581 33.5057C142.373 34.0549 142.075 34.5284 141.689 34.9261C141.306 35.3239 140.85 35.6307 140.32 35.8466C139.789 36.0625 139.204 36.1705 138.564 36.1705ZM138.564 34.5114C138.931 34.5114 139.253 34.4375 139.53 34.2898C139.806 34.142 140.037 33.9375 140.223 33.6761C140.412 33.4148 140.554 33.1136 140.649 32.7727C140.744 32.428 140.791 32.0606 140.791 31.6705C140.791 31.1515 140.708 30.6761 140.541 30.2443C140.375 29.8125 140.125 29.4678 139.791 29.2102C139.462 28.9489 139.053 28.8182 138.564 28.8182H138.308V34.5114H138.564ZM148.442 36.1705C147.589 36.1705 146.851 35.983 146.226 35.608C145.601 35.233 145.116 34.7083 144.771 34.0341C144.43 33.3598 144.26 32.572 144.26 31.6705C144.26 30.7689 144.43 29.9792 144.771 29.3011C145.116 28.6231 145.601 28.0966 146.226 27.7216C146.851 27.3466 147.589 27.1591 148.442 27.1591C149.294 27.1591 150.033 27.3466 150.658 27.7216C151.283 28.0966 151.766 28.6231 152.107 29.3011C152.451 29.9792 152.624 30.7689 152.624 31.6705C152.624 32.572 152.451 33.3598 152.107 34.0341C151.766 34.7083 151.283 35.233 150.658 35.608C150.033 35.983 149.294 36.1705 148.442 36.1705ZM148.453 34.5227C148.915 34.5227 149.302 34.3958 149.612 34.142C149.923 33.8845 150.154 33.5398 150.305 33.108C150.461 32.6761 150.538 32.1951 150.538 31.6648C150.538 31.1307 150.461 30.6477 150.305 30.2159C150.154 29.7803 149.923 29.4337 149.612 29.1761C149.302 28.9186 148.915 28.7898 148.453 28.7898C147.98 28.7898 147.586 28.9186 147.271 29.1761C146.961 29.4337 146.728 29.7803 146.572 30.2159C146.421 30.6477 146.345 31.1307 146.345 31.6648C146.345 32.1951 146.421 32.6761 146.572 33.108C146.728 33.5398 146.961 33.8845 147.271 34.142C147.586 34.3958 147.98 34.5227 148.453 34.5227ZM153.408 28.9602V27.2727H161.044V28.9602H158.22V36H156.232V28.9602H153.408ZM166.129 36.1705C165.277 36.1705 164.538 35.983 163.913 35.608C163.288 35.233 162.804 34.7083 162.459 34.0341C162.118 33.3598 161.947 32.572 161.947 31.6705C161.947 30.7689 162.118 29.9792 162.459 29.3011C162.804 28.6231 163.288 28.0966 163.913 27.7216C164.538 27.3466 165.277 27.1591 166.129 27.1591C166.982 27.1591 167.72 27.3466 168.345 27.7216C168.97 28.0966 169.453 28.6231 169.794 29.3011C170.139 29.9792 170.311 30.7689 170.311 31.6705C170.311 32.572 170.139 33.3598 169.794 34.0341C169.453 34.7083 168.97 35.233 168.345 35.608C167.72 35.983 166.982 36.1705 166.129 36.1705ZM166.141 34.5227C166.603 34.5227 166.989 34.3958 167.3 34.142C167.61 33.8845 167.841 33.5398 167.993 33.108C168.148 32.6761 168.226 32.1951 168.226 31.6648C168.226 31.1307 168.148 30.6477 167.993 30.2159C167.841 29.7803 167.61 29.4337 167.3 29.1761C166.989 28.9186 166.603 28.7898 166.141 28.7898C165.667 28.7898 165.273 28.9186 164.959 29.1761C164.648 29.4337 164.415 29.7803 164.26 30.2159C164.108 30.6477 164.033 31.1307 164.033 31.6648C164.033 32.1951 164.108 32.6761 164.26 33.108C164.415 33.5398 164.648 33.8845 164.959 34.142C165.273 34.3958 165.667 34.5227 166.141 34.5227Z" fill="white"/>
</svg>
