<svg width="172" height="19" viewBox="0 0 172 19" fill="none" xmlns="http://www.w3.org/2000/svg">
<path d="M2.23153 15V3.36364H6.37926C7.28456 3.36364 8.03456 3.52841 8.62926 3.85795C9.22396 4.1875 9.66903 4.63826 9.96449 5.21023C10.2599 5.77841 10.4077 6.41856 10.4077 7.13068C10.4077 7.84659 10.258 8.49053 9.95881 9.0625C9.66335 9.63068 9.21638 10.0814 8.6179 10.4148C8.0232 10.7443 7.27509 10.9091 6.37358 10.9091H3.52131V9.42045H6.21449C6.78646 9.42045 7.25047 9.32197 7.60653 9.125C7.96259 8.92424 8.22396 8.65152 8.39062 8.30682C8.55729 7.96212 8.64062 7.57008 8.64062 7.13068C8.64062 6.69129 8.55729 6.30114 8.39062 5.96023C8.22396 5.61932 7.9607 5.35227 7.60085 5.15909C7.24479 4.96591 6.77509 4.86932 6.19176 4.86932H3.98722V15H2.23153ZM15.9815 15.1761C15.1217 15.1761 14.3812 14.9924 13.7599 14.625C13.1425 14.2538 12.6652 13.733 12.3281 13.0625C11.9948 12.3883 11.8281 11.5985 11.8281 10.6932C11.8281 9.79924 11.9948 9.01136 12.3281 8.32955C12.6652 7.64773 13.1349 7.11553 13.7372 6.73295C14.3433 6.35038 15.0516 6.15909 15.8622 6.15909C16.3546 6.15909 16.8319 6.24053 17.294 6.40341C17.7562 6.56629 18.1709 6.82197 18.5384 7.17045C18.9058 7.51894 19.1955 7.97159 19.4077 8.52841C19.6198 9.08144 19.7259 9.75379 19.7259 10.5455V11.1477H12.7884V9.875H18.0611C18.0611 9.42803 17.9702 9.0322 17.7884 8.6875C17.6065 8.33902 17.3509 8.06439 17.0213 7.86364C16.6955 7.66288 16.313 7.5625 15.8736 7.5625C15.3963 7.5625 14.9796 7.67992 14.6236 7.91477C14.2713 8.14583 13.9986 8.44886 13.8054 8.82386C13.616 9.19508 13.5213 9.59848 13.5213 10.0341V11.0284C13.5213 11.6117 13.6236 12.108 13.8281 12.517C14.0365 12.9261 14.3262 13.2386 14.6974 13.4545C15.0687 13.6667 15.5024 13.7727 15.9986 13.7727C16.3205 13.7727 16.6141 13.7273 16.8793 13.6364C17.1444 13.5417 17.3736 13.4015 17.5668 13.2159C17.7599 13.0303 17.9077 12.8011 18.0099 12.5284L19.6179 12.8182C19.4891 13.2917 19.258 13.7064 18.9247 14.0625C18.5952 14.4148 18.1804 14.6894 17.6804 14.8864C17.1842 15.0795 16.6179 15.1761 15.9815 15.1761ZM27.1903 6.27273V7.73864H23.2869V15H21.6108V6.27273H27.1903ZM30.6506 12.6193L34.4972 6.27273H36.3267V15H34.6619V8.64773L30.8324 15H28.9858V6.27273H30.6506V12.6193ZM42.2869 15.1761C41.4422 15.1761 40.715 14.9848 40.1051 14.6023C39.4991 14.2159 39.0331 13.6837 38.7074 13.0057C38.3816 12.3277 38.2188 11.5511 38.2188 10.6761C38.2188 9.78977 38.3854 9.00758 38.7188 8.32955C39.0521 7.64773 39.5218 7.11553 40.1278 6.73295C40.7339 6.35038 41.4479 6.15909 42.2699 6.15909C42.9328 6.15909 43.5237 6.2822 44.0426 6.52841C44.5616 6.77083 44.9801 7.11174 45.2983 7.55114C45.6203 7.99053 45.8116 8.50379 45.8722 9.09091H44.2188C44.1278 8.68182 43.9195 8.32955 43.5938 8.03409C43.2718 7.73864 42.84 7.59091 42.2983 7.59091C41.8248 7.59091 41.41 7.71591 41.054 7.96591C40.7017 8.21212 40.4271 8.56439 40.2301 9.02273C40.0331 9.47727 39.9347 10.0152 39.9347 10.6364C39.9347 11.2727 40.0313 11.822 40.2244 12.2841C40.4176 12.7462 40.6903 13.1042 41.0426 13.358C41.3987 13.6117 41.8172 13.7386 42.2983 13.7386C42.6203 13.7386 42.9119 13.6799 43.1733 13.5625C43.4384 13.4413 43.66 13.2689 43.8381 13.0455C44.0199 12.822 44.1468 12.553 44.2188 12.2386H45.8722C45.8116 12.803 45.6278 13.3068 45.321 13.75C45.0142 14.1932 44.6032 14.5417 44.0881 14.7955C43.5767 15.0492 42.9763 15.1761 42.2869 15.1761ZM47.0284 7.73864V6.27273H54.392V7.73864H51.5455V15H49.8864V7.73864H47.0284ZM56.1889 18.2727V6.27273H57.848V7.6875H57.9901C58.0885 7.50568 58.2306 7.29545 58.4162 7.05682C58.6018 6.81818 58.8594 6.60985 59.1889 6.43182C59.5185 6.25 59.9541 6.15909 60.4957 6.15909C61.2003 6.15909 61.8291 6.33712 62.3821 6.69318C62.9351 7.04924 63.3688 7.5625 63.6832 8.23295C64.0014 8.90341 64.1605 9.71023 64.1605 10.6534C64.1605 11.5966 64.0033 12.4053 63.6889 13.0795C63.3745 13.75 62.9427 14.267 62.3935 14.6307C61.8442 14.9905 61.2173 15.1705 60.5128 15.1705C59.9825 15.1705 59.5488 15.0814 59.2116 14.9034C58.8783 14.7254 58.617 14.517 58.4276 14.2784C58.2382 14.0398 58.0923 13.8277 57.9901 13.642H57.8878V18.2727H56.1889ZM57.8537 10.6364C57.8537 11.25 57.9427 11.7879 58.1207 12.25C58.2988 12.7121 58.5563 13.0739 58.8935 13.3352C59.2306 13.5928 59.6435 13.7216 60.1321 13.7216C60.6397 13.7216 61.0639 13.5871 61.4048 13.3182C61.7457 13.0455 62.0033 12.6761 62.1776 12.2102C62.3556 11.7443 62.4446 11.2197 62.4446 10.6364C62.4446 10.0606 62.3575 9.54356 62.1832 9.08523C62.0128 8.62689 61.7552 8.26515 61.4105 8C61.0696 7.73485 60.6435 7.60227 60.1321 7.60227C59.6397 7.60227 59.223 7.72917 58.8821 7.98295C58.545 8.23674 58.2893 8.59091 58.1151 9.04545C57.9408 9.5 57.8537 10.0303 57.8537 10.6364ZM68.6037 15.1932C68.0507 15.1932 67.5507 15.0909 67.1037 14.8864C66.6567 14.678 66.3026 14.3769 66.0412 13.983C65.7836 13.589 65.6548 13.1061 65.6548 12.5341C65.6548 12.0417 65.7495 11.6364 65.9389 11.3182C66.1283 11 66.384 10.7481 66.706 10.5625C67.0279 10.3769 67.3878 10.2367 67.7855 10.142C68.1832 10.0473 68.5885 9.97538 69.0014 9.92614C69.5241 9.86553 69.9484 9.81629 70.2741 9.77841C70.5999 9.73674 70.8366 9.67045 70.9844 9.57955C71.1321 9.48864 71.206 9.34091 71.206 9.13636V9.09659C71.206 8.60038 71.0658 8.21591 70.7855 7.94318C70.509 7.67045 70.0961 7.53409 69.5469 7.53409C68.9749 7.53409 68.5241 7.66098 68.1946 7.91477C67.8688 8.16477 67.6435 8.44318 67.5185 8.75L65.9219 8.38636C66.1113 7.85606 66.3878 7.42803 66.7514 7.10227C67.1188 6.77273 67.5412 6.53409 68.0185 6.38636C68.4957 6.23485 68.9976 6.15909 69.5241 6.15909C69.8726 6.15909 70.242 6.20076 70.6321 6.28409C71.026 6.36364 71.3935 6.51136 71.7344 6.72727C72.0791 6.94318 72.3613 7.25189 72.581 7.65341C72.8007 8.05114 72.9105 8.56818 72.9105 9.20455V15H71.2514V13.8068H71.1832C71.0734 14.0265 70.9086 14.2424 70.6889 14.4545C70.4692 14.6667 70.187 14.8428 69.8423 14.983C69.4976 15.1231 69.0848 15.1932 68.6037 15.1932ZM68.973 13.8295C69.4427 13.8295 69.8442 13.7367 70.1776 13.5511C70.5147 13.3655 70.7704 13.1231 70.9446 12.8239C71.1226 12.5208 71.2116 12.197 71.2116 11.8523V10.7273C71.151 10.7879 71.0336 10.8447 70.8594 10.8977C70.6889 10.947 70.4938 10.9905 70.2741 11.0284C70.0545 11.0625 69.8404 11.0947 69.6321 11.125C69.4238 11.1515 69.2495 11.1742 69.1094 11.1932C68.7798 11.2348 68.4787 11.3049 68.206 11.4034C67.937 11.5019 67.7211 11.6439 67.5582 11.8295C67.3991 12.0114 67.3196 12.2538 67.3196 12.5568C67.3196 12.9773 67.4749 13.2955 67.7855 13.5114C68.0961 13.7235 68.492 13.8295 68.973 13.8295ZM82.2926 6.27273V13.608H83.571V17.8125H81.8949V15H75.1733V6.27273H76.8381V13.5341H80.6335V6.27273H82.2926ZM87.1193 12.6193L90.9659 6.27273H92.7955V15H91.1307V8.64773L87.3011 15H85.4545V6.27273H87.1193V12.6193ZM100.284 15V7.72159H98.1932C97.697 7.72159 97.3106 7.83712 97.0341 8.06818C96.7576 8.29924 96.6193 8.60227 96.6193 8.97727C96.6193 9.34848 96.7462 9.64773 97 9.875C97.2576 10.0985 97.6174 10.2102 98.0795 10.2102H100.778V11.5852H98.0795C97.4356 11.5852 96.8788 11.4792 96.4091 11.267C95.9432 11.0511 95.5833 10.7462 95.3295 10.3523C95.0795 9.95833 94.9545 9.49242 94.9545 8.95455C94.9545 8.4053 95.0833 7.93182 95.3409 7.53409C95.6023 7.13258 95.9754 6.82197 96.4602 6.60227C96.9489 6.38258 97.5265 6.27273 98.1932 6.27273H101.881V15H100.284ZM94.5568 15L97.017 10.5909H98.7557L96.2955 15H94.5568Z" fill="#ECECEC"/>
<path d="M134.278 15V3.36364H138.54C139.366 3.36364 140.049 3.5 140.591 3.77273C141.133 4.04167 141.538 4.4072 141.807 4.86932C142.076 5.32765 142.21 5.8447 142.21 6.42045C142.21 6.9053 142.121 7.31439 141.943 7.64773C141.765 7.97727 141.527 8.24242 141.227 8.44318C140.932 8.64015 140.606 8.78409 140.25 8.875V8.98864C140.636 9.00758 141.013 9.13258 141.381 9.36364C141.752 9.59091 142.059 9.91477 142.301 10.3352C142.544 10.7557 142.665 11.267 142.665 11.8693C142.665 12.464 142.525 12.9981 142.244 13.4716C141.968 13.9413 141.54 14.3144 140.96 14.5909C140.381 14.8636 139.64 15 138.739 15H134.278ZM136.034 13.4943H138.568C139.409 13.4943 140.011 13.3314 140.375 13.0057C140.739 12.6799 140.92 12.2727 140.92 11.7841C140.92 11.4167 140.828 11.0795 140.642 10.7727C140.456 10.4659 140.191 10.2216 139.847 10.0398C139.506 9.85795 139.1 9.76705 138.631 9.76705H136.034V13.4943ZM136.034 8.39773H138.386C138.78 8.39773 139.134 8.32197 139.449 8.17045C139.767 8.01894 140.019 7.80682 140.205 7.53409C140.394 7.25758 140.489 6.93182 140.489 6.55682C140.489 6.07576 140.32 5.67235 139.983 5.34659C139.646 5.02083 139.129 4.85795 138.432 4.85795H136.034V8.39773ZM145.952 6.27273L147.878 9.67045L149.821 6.27273H151.679L148.957 10.6364L151.702 15H149.844L147.878 11.7386L145.918 15H144.054L146.77 10.6364L144.088 6.27273H145.952ZM156.756 15.1761C155.938 15.1761 155.223 14.9886 154.614 14.6136C154.004 14.2386 153.53 13.714 153.193 13.0398C152.856 12.3655 152.688 11.5777 152.688 10.6761C152.688 9.77083 152.856 8.97917 153.193 8.30114C153.53 7.62311 154.004 7.09659 154.614 6.72159C155.223 6.34659 155.938 6.15909 156.756 6.15909C157.574 6.15909 158.288 6.34659 158.898 6.72159C159.508 7.09659 159.981 7.62311 160.318 8.30114C160.655 8.97917 160.824 9.77083 160.824 10.6761C160.824 11.5777 160.655 12.3655 160.318 13.0398C159.981 13.714 159.508 14.2386 158.898 14.6136C158.288 14.9886 157.574 15.1761 156.756 15.1761ZM156.761 13.75C157.292 13.75 157.731 13.6098 158.08 13.3295C158.428 13.0492 158.686 12.6761 158.852 12.2102C159.023 11.7443 159.108 11.2311 159.108 10.6705C159.108 10.1136 159.023 9.60227 158.852 9.13636C158.686 8.66667 158.428 8.28977 158.08 8.00568C157.731 7.72159 157.292 7.57955 156.761 7.57955C156.227 7.57955 155.784 7.72159 155.432 8.00568C155.083 8.28977 154.824 8.66667 154.653 9.13636C154.487 9.60227 154.403 10.1136 154.403 10.6705C154.403 11.2311 154.487 11.7443 154.653 12.2102C154.824 12.6761 155.083 13.0492 155.432 13.3295C155.784 13.6098 156.227 13.75 156.761 13.75ZM161.868 17.517V13.5284H162.578C162.76 13.3617 162.913 13.1629 163.038 12.9318C163.167 12.7008 163.275 12.4261 163.362 12.108C163.453 11.7898 163.529 11.4186 163.589 10.9943C163.65 10.5663 163.703 10.0777 163.749 9.52841L164.021 6.27273H169.953V13.5284H171.294V17.517H169.635V15H163.55V17.517H161.868ZM164.396 13.5284H168.294V7.72727H165.544L165.362 9.52841C165.275 10.4451 165.165 11.2405 165.033 11.9148C164.9 12.5852 164.688 13.1231 164.396 13.5284Z" fill="#ECECEC"/>
</svg>
