<svg width="190" height="40" viewBox="0 0 190 40" fill="none" xmlns="http://www.w3.org/2000/svg">
<path d="M64.9318 14.0739H67.8722C69.0085 14.0739 70.017 14.3177 70.8977 14.8054C71.7784 15.2931 72.4697 15.9796 72.9716 16.8651C73.4735 17.7457 73.7244 18.7779 73.7244 19.9616C73.7244 21.117 73.4735 22.1278 72.9716 22.9943C72.4697 23.8608 71.7784 24.5355 70.8977 25.0185C70.017 25.4967 69.0085 25.7358 67.8722 25.7358H64.9318C63.7907 25.7358 62.7775 25.4991 61.892 25.0256C61.0114 24.5473 60.3201 23.875 59.8182 23.0085C59.3163 22.142 59.0653 21.1288 59.0653 19.9688C59.0653 18.785 59.3187 17.7528 59.8253 16.8722C60.3319 15.9867 61.0256 15.3002 61.9062 14.8125C62.7917 14.3201 63.8002 14.0739 64.9318 14.0739ZM64.9318 16.304C64.2405 16.304 63.6416 16.446 63.1349 16.7301C62.633 17.0095 62.2448 17.4214 61.9702 17.9659C61.6955 18.5104 61.5582 19.178 61.5582 19.9688C61.5582 20.7263 61.6955 21.3679 61.9702 21.8935C62.2495 22.419 62.6425 22.8191 63.1491 23.0938C63.6558 23.3684 64.25 23.5057 64.9318 23.5057H67.8793C68.5658 23.5057 69.1577 23.3684 69.6548 23.0938C70.1567 22.8144 70.5426 22.4119 70.8125 21.8864C71.0871 21.3561 71.2244 20.7145 71.2244 19.9616C71.2244 19.1804 71.0871 18.5175 70.8125 17.973C70.5426 17.4285 70.1567 17.0142 69.6548 16.7301C69.1577 16.446 68.5658 16.304 67.8793 16.304H64.9318ZM67.6733 12.1989V27.5966H65.1378V12.1989H67.6733ZM80.8764 27.2131C79.8111 27.2131 78.8878 26.9787 78.1065 26.5099C77.3253 26.0412 76.7192 25.3854 76.2884 24.5426C75.8622 23.6998 75.6491 22.715 75.6491 21.5881C75.6491 20.4612 75.8622 19.474 76.2884 18.6264C76.7192 17.7789 77.3253 17.1207 78.1065 16.652C78.8878 16.1832 79.8111 15.9489 80.8764 15.9489C81.9418 15.9489 82.8651 16.1832 83.6463 16.652C84.4276 17.1207 85.0313 17.7789 85.4574 18.6264C85.8883 19.474 86.1037 20.4612 86.1037 21.5881C86.1037 22.715 85.8883 23.6998 85.4574 24.5426C85.0313 25.3854 84.4276 26.0412 83.6463 26.5099C82.8651 26.9787 81.9418 27.2131 80.8764 27.2131ZM80.8906 25.1534C81.4683 25.1534 81.9512 24.9948 82.3395 24.6776C82.7277 24.3556 83.0166 23.9247 83.206 23.3849C83.4001 22.8452 83.4972 22.2438 83.4972 21.581C83.4972 20.9134 83.4001 20.3097 83.206 19.7699C83.0166 19.2254 82.7277 18.7921 82.3395 18.4702C81.9512 18.1482 81.4683 17.9872 80.8906 17.9872C80.2988 17.9872 79.8063 18.1482 79.4134 18.4702C79.0251 18.7921 78.7339 19.2254 78.5398 19.7699C78.3504 20.3097 78.2557 20.9134 78.2557 21.581C78.2557 22.2438 78.3504 22.8452 78.5398 23.3849C78.7339 23.9247 79.0251 24.3556 79.4134 24.6776C79.8063 24.9948 80.2988 25.1534 80.8906 25.1534ZM87.0838 18.2003V16.0909H96.6293V18.2003H93.0994V27H90.6136V18.2003H87.0838ZM102.986 27.2131C101.92 27.2131 100.997 26.9787 100.216 26.5099C99.4347 26.0412 98.8286 25.3854 98.3977 24.5426C97.9716 23.6998 97.7585 22.715 97.7585 21.5881C97.7585 20.4612 97.9716 19.474 98.3977 18.6264C98.8286 17.7789 99.4347 17.1207 100.216 16.652C100.997 16.1832 101.92 15.9489 102.986 15.9489C104.051 15.9489 104.974 16.1832 105.756 16.652C106.537 17.1207 107.141 17.7789 107.567 18.6264C107.998 19.474 108.213 20.4612 108.213 21.5881C108.213 22.715 107.998 23.6998 107.567 24.5426C107.141 25.3854 106.537 26.0412 105.756 26.5099C104.974 26.9787 104.051 27.2131 102.986 27.2131ZM103 25.1534C103.578 25.1534 104.061 24.9948 104.449 24.6776C104.837 24.3556 105.126 23.9247 105.315 23.3849C105.509 22.8452 105.607 22.2438 105.607 21.581C105.607 20.9134 105.509 20.3097 105.315 19.7699C105.126 19.2254 104.837 18.7921 104.449 18.4702C104.061 18.1482 103.578 17.9872 103 17.9872C102.408 17.9872 101.916 18.1482 101.523 18.4702C101.134 18.7921 100.843 19.2254 100.649 19.7699C100.46 20.3097 100.365 20.9134 100.365 21.581C100.365 22.2438 100.46 22.8452 100.649 23.3849C100.843 23.9247 101.134 24.3556 101.523 24.6776C101.916 24.9948 102.408 25.1534 103 25.1534ZM117.611 16.0909V18.2003H112.909V27H110.395V16.0909H117.611ZM122.363 27.2202C121.671 27.2202 121.049 27.0971 120.495 26.8509C119.945 26.5999 119.51 26.2306 119.188 25.7429C118.871 25.2552 118.712 24.6539 118.712 23.9389C118.712 23.3234 118.826 22.8144 119.053 22.4119C119.28 22.0095 119.59 21.6875 119.983 21.446C120.376 21.2045 120.819 21.0223 121.311 20.8991C121.809 20.7713 122.322 20.679 122.853 20.6222C123.492 20.5559 124.01 20.4967 124.408 20.4446C124.806 20.3878 125.095 20.3026 125.275 20.1889C125.459 20.0705 125.551 19.8883 125.551 19.642V19.5994C125.551 19.0644 125.393 18.6501 125.076 18.3565C124.758 18.063 124.301 17.9162 123.705 17.9162C123.075 17.9162 122.576 18.0535 122.206 18.3281C121.842 18.6027 121.596 18.9271 121.468 19.3011L119.067 18.9602C119.257 18.2973 119.569 17.7434 120.005 17.2983C120.44 16.8485 120.973 16.5123 121.603 16.2898C122.232 16.0625 122.928 15.9489 123.691 15.9489C124.216 15.9489 124.739 16.0104 125.26 16.1335C125.781 16.2566 126.257 16.4602 126.688 16.7443C127.119 17.0237 127.464 17.4048 127.725 17.8878C127.99 18.3707 128.123 18.9744 128.123 19.6989V27H125.651V25.5014H125.566C125.409 25.8045 125.189 26.0885 124.905 26.3537C124.626 26.6141 124.273 26.8248 123.847 26.9858C123.426 27.142 122.931 27.2202 122.363 27.2202ZM123.03 25.331C123.546 25.331 123.994 25.2292 124.373 25.0256C124.751 24.8172 125.042 24.5426 125.246 24.2017C125.454 23.8608 125.559 23.4891 125.559 23.0866V21.8011C125.478 21.8674 125.341 21.929 125.147 21.9858C124.957 22.0426 124.744 22.0923 124.507 22.1349C124.271 22.1776 124.036 22.2154 123.804 22.2486C123.572 22.2817 123.371 22.3101 123.201 22.3338C122.817 22.3859 122.474 22.4711 122.171 22.5895C121.868 22.7079 121.629 22.8736 121.453 23.0866C121.278 23.295 121.191 23.5649 121.191 23.8963C121.191 24.3698 121.364 24.7273 121.709 24.9688C122.055 25.2102 122.495 25.331 123.03 25.331ZM129.955 27L129.941 24.8835H130.317C130.601 24.8835 130.84 24.8196 131.034 24.6918C131.229 24.5639 131.39 24.3509 131.517 24.0526C131.645 23.7495 131.745 23.3423 131.816 22.831C131.887 22.3196 131.936 21.6828 131.965 20.9205L132.157 16.0909H140.111V27H137.625V18.2003H134.493L134.323 21.7159C134.28 22.625 134.178 23.4134 134.017 24.081C133.861 24.7438 133.639 25.2907 133.35 25.7216C133.066 26.1525 132.708 26.4744 132.277 26.6875C131.846 26.8958 131.337 27 130.75 27H129.955ZM147.529 27.2131C146.436 27.2131 145.491 26.9858 144.696 26.5312C143.905 26.072 143.297 25.4233 142.87 24.5852C142.444 23.7424 142.231 22.7505 142.231 21.6094C142.231 20.4872 142.444 19.5024 142.87 18.6548C143.301 17.8026 143.903 17.1397 144.674 16.6662C145.446 16.188 146.353 15.9489 147.395 15.9489C148.067 15.9489 148.701 16.0578 149.298 16.2756C149.899 16.4886 150.43 16.8201 150.889 17.2699C151.353 17.7197 151.717 18.2926 151.983 18.9886C152.248 19.6799 152.38 20.5038 152.38 21.4602V22.2486H143.439V20.5156H149.916C149.911 20.0232 149.805 19.5852 149.596 19.2017C149.388 18.8134 149.097 18.508 148.723 18.2855C148.353 18.063 147.922 17.9517 147.43 17.9517C146.904 17.9517 146.443 18.0795 146.045 18.3352C145.647 18.5862 145.337 18.9176 145.115 19.3295C144.897 19.7367 144.786 20.1842 144.781 20.6719V22.1847C144.781 22.8191 144.897 23.3636 145.129 23.8182C145.361 24.268 145.685 24.6136 146.102 24.8551C146.519 25.0919 147.006 25.2102 147.565 25.2102C147.939 25.2102 148.278 25.1581 148.581 25.054C148.884 24.9451 149.146 24.7865 149.369 24.5781C149.592 24.3698 149.76 24.1117 149.873 23.804L152.274 24.0739C152.122 24.7083 151.833 25.2623 151.407 25.7358C150.986 26.2045 150.446 26.5691 149.788 26.8295C149.13 27.0852 148.377 27.2131 147.529 27.2131ZM154.555 31.0909V16.0909H157.084V17.8949H157.233C157.366 17.6297 157.553 17.348 157.794 17.0497C158.036 16.7467 158.362 16.4886 158.774 16.2756C159.186 16.0578 159.712 15.9489 160.351 15.9489C161.194 15.9489 161.954 16.1643 162.631 16.5952C163.313 17.0213 163.852 17.6534 164.25 18.4915C164.652 19.3248 164.854 20.3475 164.854 21.5597C164.854 22.7576 164.657 23.7756 164.264 24.6136C163.871 25.4517 163.336 26.0909 162.659 26.5312C161.982 26.9716 161.215 27.1918 160.358 27.1918C159.733 27.1918 159.214 27.0876 158.803 26.8793C158.391 26.6709 158.059 26.42 157.808 26.1264C157.562 25.8281 157.37 25.5464 157.233 25.2812H157.126V31.0909H154.555ZM157.077 21.5455C157.077 22.2509 157.176 22.8688 157.375 23.3991C157.579 23.9295 157.87 24.3437 158.249 24.642C158.632 24.9356 159.096 25.0824 159.641 25.0824C160.209 25.0824 160.685 24.9309 161.068 24.6278C161.452 24.3201 161.741 23.901 161.935 23.3707C162.134 22.8357 162.233 22.2273 162.233 21.5455C162.233 20.8684 162.136 20.267 161.942 19.7415C161.748 19.2159 161.459 18.804 161.075 18.5057C160.692 18.2074 160.214 18.0582 159.641 18.0582C159.091 18.0582 158.625 18.2027 158.241 18.4915C157.858 18.7803 157.567 19.1851 157.368 19.706C157.174 20.2268 157.077 20.84 157.077 21.5455ZM171.885 27.2131C170.791 27.2131 169.847 26.9858 169.051 26.5312C168.26 26.072 167.652 25.4233 167.226 24.5852C166.8 23.7424 166.587 22.7505 166.587 21.6094C166.587 20.4872 166.8 19.5024 167.226 18.6548C167.657 17.8026 168.258 17.1397 169.03 16.6662C169.802 16.188 170.708 15.9489 171.75 15.9489C172.422 15.9489 173.057 16.0578 173.653 16.2756C174.255 16.4886 174.785 16.8201 175.244 17.2699C175.708 17.7197 176.073 18.2926 176.338 18.9886C176.603 19.6799 176.736 20.5038 176.736 21.4602V22.2486H167.794V20.5156H174.271C174.267 20.0232 174.16 19.5852 173.952 19.2017C173.743 18.8134 173.452 18.508 173.078 18.2855C172.709 18.063 172.278 17.9517 171.786 17.9517C171.26 17.9517 170.798 18.0795 170.401 18.3352C170.003 18.5862 169.693 18.9176 169.47 19.3295C169.252 19.7367 169.141 20.1842 169.136 20.6719V22.1847C169.136 22.8191 169.252 23.3636 169.484 23.8182C169.716 24.268 170.041 24.6136 170.457 24.8551C170.874 25.0919 171.362 25.2102 171.92 25.2102C172.295 25.2102 172.633 25.1581 172.936 25.054C173.239 24.9451 173.502 24.7865 173.724 24.5781C173.947 24.3698 174.115 24.1117 174.229 23.804L176.629 24.0739C176.478 24.7083 176.189 25.2623 175.763 25.7358C175.341 26.2045 174.802 26.5691 174.143 26.8295C173.485 27.0852 172.732 27.2131 171.885 27.2131ZM185.36 27V18.179H183.03C182.438 18.179 181.984 18.3163 181.667 18.5909C181.349 18.8655 181.193 19.2064 181.198 19.6136C181.193 20.0208 181.342 20.357 181.645 20.6222C181.948 20.8873 182.382 21.0199 182.945 21.0199H186.169V22.8949H182.945C182.074 22.8949 181.321 22.7576 180.686 22.483C180.052 22.2083 179.564 21.8201 179.223 21.3182C178.882 20.8163 178.712 20.2292 178.712 19.5568C178.712 18.8561 178.885 18.2476 179.23 17.7315C179.581 17.2107 180.078 16.8082 180.722 16.5241C181.371 16.2353 182.14 16.0909 183.03 16.0909H187.767V27H185.36ZM178.314 27L181.361 21.4034H183.897L180.843 27H178.314Z" fill="#ECECEC"/>
<rect x="2" y="2" width="36" height="36" rx="6" stroke="#9747FF" stroke-width="4"/>
<path d="M2 27L11.8787 17.1213C13.0503 15.9497 14.9497 15.9497 16.1213 17.1213L20.0628 21.0628C21.1599 22.1599 22.9127 22.2394 24.1047 21.2461L26.0039 19.6634C27.1496 18.7086 28.8228 18.7405 29.9313 19.7382L38 27" stroke="#9747FF" stroke-width="4"/>
<circle cx="28" cy="10" r="2" fill="#9747FF"/>
</svg>
